<?xml version="1.0" standalone="no"?>
<!DOCTYPE svg PUBLIC "-//W3C//DTD SVG 20010904//EN"
 "http://www.w3.org/TR/2001/REC-SVG-20010904/DTD/svg10.dtd">
<svg version="1.0" xmlns="http://www.w3.org/2000/svg"
 width="700.000000pt" height="700.000000pt" viewBox="0 0 700.000000 700.000000"
 preserveAspectRatio="xMidYMid meet">
<metadata>
Created by potrace 1.14, written by Peter Selinger 2001-2017
</metadata>
<g transform="translate(0.000000,700.000000) scale(0.100000,-0.100000)"
fill="#000000" stroke="none">
<path d="M1150 6985 c-174 -35 -326 -116 -454 -241 -137 -135 -233 -332 -252
-519 -9 -80 -11 -514 -3 -527 6 -9 155 -12 379 -9 l55 1 0 233 c-1 263 4 308
46 392 64 129 186 220 324 241 79 11 1366 11 1373 -1 4 -5 7 -707 7 -1560 l1
-1550 22 -42 c42 -81 135 -130 224 -119 48 6 62 14 597 336 249 149 458 273
464 276 7 2 39 -13 72 -34 33 -21 134 -83 225 -137 91 -54 181 -108 200 -120
19 -12 114 -69 210 -125 96 -57 182 -109 190 -115 8 -7 42 -27 75 -45 51 -28
70 -33 125 -33 97 -1 160 40 201 128 18 38 19 106 19 1595 l0 1555 248 -2
c262 -1 303 -7 388 -50 114 -58 196 -164 231 -298 9 -35 9 -5347 0 -5410 -24
-168 -152 -307 -327 -356 -63 -17 -4489 -18 -4568 -1 -168 37 -302 171 -335
337 -8 38 -13 146 -12 292 0 151 -3 233 -10 233 -21 1 -264 1 -345 1 l-85 -1
1 -237 c1 -270 6 -330 34 -430 83 -300 309 -523 625 -617 70 -21 73 -21 2385
-23 l2315 -2 95 25 c366 94 621 381 666 749 9 68 9 5364 0 5440 -3 33 -9 71
-12 85 -3 14 -7 36 -10 49 -20 98 -117 276 -196 361 -40 43 -142 129 -183 155
-62 40 -206 101 -262 111 -15 3 -50 10 -78 14 -27 5 -1074 9 -2325 8 -1831 0
-2288 -2 -2340 -13z"/>
<path d="M580 5236 c-48 -20 -99 -67 -120 -111 -19 -39 -22 -64 -23 -178 l-2
-132 -121 -2 c-154 -2 -194 -13 -248 -66 -67 -68 -84 -170 -41 -254 24 -47 88
-98 137 -109 24 -5 249 -9 513 -9 470 0 470 0 514 23 139 73 164 257 48 359
-51 45 -95 56 -236 57 l-125 1 -1 135 c-2 116 -5 141 -23 176 -51 99 -177 150
-272 110z"/>
<path d="M598 3930 c-42 -12 -91 -45 -114 -77 -39 -54 -46 -88 -47 -223 l0
-130 -131 0 c-108 0 -139 -4 -173 -20 -82 -37 -125 -98 -129 -184 -5 -85 27
-148 97 -196 l52 -35 501 0 c558 0 529 -3 600 70 113 116 46 326 -114 360 -8
2 -71 4 -140 4 l-125 1 -1 128 c0 149 -4 165 -44 220 -50 69 -152 105 -232 82z"/>
<path d="M615 2620 c-73 -16 -126 -59 -157 -129 -16 -36 -20 -66 -21 -172 0
-124 -1 -129 -21 -130 -12 0 -64 0 -116 0 -161 1 -237 -36 -283 -138 -35 -79
-9 -185 59 -245 63 -55 68 -56 589 -55 453 0 482 1 520 20 135 65 168 244 64
348 -62 63 -95 70 -319 71 l-56 0 1 108 c1 59 -3 127 -7 152 -20 112 -142 194
-253 170z"/>
</g>
</svg>
